<svg id="152ed2ff-1198-4223-a5c7-c1e8a6c381b0" data-name="Layer 1" xmlns="http://www.w3.org/2000/svg" viewBox="0 0 566.78 155.19"><defs><style>.\33 3a15968-4bc3-455a-9cfd-13b5c0e4f55c{fill:#ff6c2f;}.\30 47eb6c8-b8d3-4b67-96da-67df86fd71c3{fill:#fff;}.\30 2f004b3-9510-4ce7-bb90-54c3d84653cf{fill:#231f20;}</style></defs><title>Artboard 1</title><polygon class="33a15968-4bc3-455a-9cfd-13b5c0e4f55c" points="99.57 0 0 0 0 154.67 40.83 154.67 36.13 96.41 30.5 96.41 30.5 93.56 68.24 93.56 68.24 96.41 62.1 96.41 57.39 154.67 99.57 154.67 99.57 0"/><path class="047eb6c8-b8d3-4b67-96da-67df86fd71c3" d="M54.63,13.37S73.42,32.7,64.57,57.08c-2.72,7.49-8.21,11.72-11.83,16.51-4.6,6.1-5.89,11.18-5.23,15.65H34S18.5,72.8,36.93,53.65,54.81,14.9,54.63,13.37Z"/><path class="047eb6c8-b8d3-4b67-96da-67df86fd71c3" d="M75.5,50.49s-5.06,8.85-8.22,12.74c-6.6,8.11-15.1,14.18-15,26H64.63S78.21,69,75.5,50.49Z"/><path class="02f004b3-9510-4ce7-bb90-54c3d84653cf" d="M118.86,87.47V2.32h16.27V15.69C142.1,1.08,152.55,0,163.18,0H167V17.93a34.54,34.54,0,0,0-6.14-.5c-16.6,0-24.56,10.29-24.56,26.22V87.47Z"/><path class="02f004b3-9510-4ce7-bb90-54c3d84653cf" d="M182,49.3c.67,17.26,9,26.72,23.41,26.72,9.29,0,19.25-5.93,19.25-15.83h18.09c0,17.77-18.59,29.61-36.51,29.61-27.72,0-41.66-15.44-41.66-46.48C164.55,17.1,179.32,0,204.88,0c25.89,0,39,16.76,39,49.3Zm44.15-11.13c-.66-15.93-9.29-24.23-21.74-24.23s-21.24,9-21.91,24.23Z"/><path class="02f004b3-9510-4ce7-bb90-54c3d84653cf" d="M305.64,87.47a76.83,76.83,0,0,1-1.9-11.62c-4.81,8.14-15.43,14-28.88,14-19.92,0-28.71-9.63-28.71-23.57,0-23.08,15.43-26.56,38.17-29.22,13.12-1.66,18.26-3.32,18.76-9,0-9.13-6-14.44-18.42-14.44-13.28,0-18.76,6-19.59,16.43H249c.5-17.59,9.46-30,36.35-30,26.56,0,35.52,12.12,35.52,33.69,0,0-.36,37.69,0,41.41a113,113,0,0,0,2.06,12.48Zm-2.06-42.08c-2.66,2.83-8.63,3.49-19.09,5-14.61,2.33-20.92,3.91-20.92,14,0,8.46,5,12.78,15.11,12.78,13.11,0,24.06-8.8,24.56-21.41Z"/><path class="02f004b3-9510-4ce7-bb90-54c3d84653cf" d="M381.74,28.05c-1.16-10.29-6.31-14.77-19.59-14.77-11.61,0-17.75,2.82-17.75,10.29,0,7.8,5.3,9.63,18.42,12.28,26.72,6.14,38,9.46,38,27.89,0,14.77-12.45,26.06-36.68,26.06-24.4,0-39.17-11.62-39.67-29.72H342.4c0,8,8.47,14.53,21.58,14.53,14.44,0,20.08-5.41,20.08-10.21,0-8.13-8.79-10.79-19.91-13.11-29.71-5.81-36.52-12.95-36.52-27.72,0-13.11,10.62-23.57,35-23.57,24.9,0,34.86,10.62,35.69,28.05Z"/><path class="02f004b3-9510-4ce7-bb90-54c3d84653cf" d="M402.81,45c0-27,16.44-45,42.83-45,25.89,0,42.16,17.76,42.16,45,0,26.89-16.44,44.82-42.16,44.82C418.75,89.8,402.81,71.37,402.81,45Zm67.56,0c0-19.59-8.63-30.21-24.73-30.21S420.74,25.39,420.74,45c0,19.42,8.8,30.21,24.9,30.21C461.57,75.19,470.37,64.4,470.37,45Z"/><path class="02f004b3-9510-4ce7-bb90-54c3d84653cf" d="M536.22,0a33.65,33.65,0,0,0-13.77,2.53c-6.37,2.53-11.34,7.14-14.26,14.81v-15h-16.6V87.47h17.74V43.65c0-15.29,6.06-26.22,22.65-26.22,9,0,17.54,6.13,17.54,17.59V87.47h17.26V29.55C566.78.22,536.22,0,536.22,0Z"/><path class="02f004b3-9510-4ce7-bb90-54c3d84653cf" d="M118.27,105.69h30.89v6.73H126.39v13.47H147.5v6.73H126.39v21.67h-8.12Z"/><path class="02f004b3-9510-4ce7-bb90-54c3d84653cf" d="M158.53,119.47a22.41,22.41,0,0,1,4.61-8,20,20,0,0,1,7.15-5,25.48,25.48,0,0,1,18.51,0,19.87,19.87,0,0,1,7.18,5,22.57,22.57,0,0,1,4.62,8,34.73,34.73,0,0,1,0,21,22.57,22.57,0,0,1-4.62,7.95,19.75,19.75,0,0,1-7.18,5,25.48,25.48,0,0,1-18.51,0,19.9,19.9,0,0,1-7.15-5,22.41,22.41,0,0,1-4.61-7.95,34.53,34.53,0,0,1,0-21Zm7.7,17.87a17.27,17.27,0,0,0,2.64,5.87,12.49,12.49,0,0,0,4.44,3.86,14.84,14.84,0,0,0,12.5,0,12.52,12.52,0,0,0,4.45-3.86,17.07,17.07,0,0,0,2.63-5.87,31.52,31.52,0,0,0,0-14.71,17.07,17.07,0,0,0-2.63-5.87,12.49,12.49,0,0,0-4.45-3.85,14.75,14.75,0,0,0-12.5,0,12.46,12.46,0,0,0-4.44,3.85,17.27,17.27,0,0,0-2.64,5.87,31.88,31.88,0,0,0,0,14.71Z"/><path class="02f004b3-9510-4ce7-bb90-54c3d84653cf" d="M217.76,150.4q-4.47-4.8-4.48-13.68v-31h8.2v31.1a17.63,17.63,0,0,0,.55,4.48A10.38,10.38,0,0,0,223.8,145a8.53,8.53,0,0,0,3.2,2.54,13,13,0,0,0,9.65,0,8.49,8.49,0,0,0,3.19-2.54,10.38,10.38,0,0,0,1.77-3.71,17.62,17.62,0,0,0,.56-4.48v-31.1h8.19v31q0,8.9-4.48,13.68t-14.06,4.79Q222.24,155.19,217.76,150.4Z"/><path class="02f004b3-9510-4ce7-bb90-54c3d84653cf" d="M272.49,105.69q5,7.91,9.44,14.85c1.25,2,2.52,4,3.82,6l3.71,5.87q1.77,2.82,3.23,5.17t2.43,3.82h.21V105.69H303v48.6h-8.6q-4.94-7.78-9.31-14.65-1.87-2.92-3.82-6l-3.71-5.9c-1.18-1.88-2.27-3.61-3.26-5.21s-1.84-2.93-2.54-4h-.21v35.76h-7.7v-48.6Z"/><path class="02f004b3-9510-4ce7-bb90-54c3d84653cf" d="M334,105.69a26.4,26.4,0,0,1,9.58,1.63,19.43,19.43,0,0,1,7.22,4.75,20.71,20.71,0,0,1,4.55,7.64,34.62,34.62,0,0,1,0,20.55,20.63,20.63,0,0,1-4.55,7.64,19.43,19.43,0,0,1-7.22,4.75,26.4,26.4,0,0,1-9.58,1.64H316.77v-48.6Zm13.58,17.11a15.31,15.31,0,0,0-2.71-5.55,11.94,11.94,0,0,0-4.69-3.58,16.88,16.88,0,0,0-6.8-1.25H325v35.13h8.33a16.88,16.88,0,0,0,6.8-1.25,12,12,0,0,0,4.69-3.57,15.36,15.36,0,0,0,2.71-5.56,30.44,30.44,0,0,0,0-14.37Z"/><path class="02f004b3-9510-4ce7-bb90-54c3d84653cf" d="M396.66,154.29l-4.31-12.22H374l-4.3,12.22h-8.05l17.63-48.6h8.33l17.57,48.6Zm-14.2-37.11c-.25.81-.56,1.73-.9,2.77l-1.11,3.34c-.4,1.18-.8,2.34-1.22,3.5-.92,2.73-1.92,5.67-3,8.82h13.88q-1.67-4.73-3.05-8.82c-.42-1.16-.83-2.32-1.22-3.5L384.75,120c-.35-1-.66-2-.94-2.77s-.48-1.45-.62-1.91h-.14Z"/><path class="02f004b3-9510-4ce7-bb90-54c3d84653cf" d="M441.27,105.69v6.73H427v41.87h-8.19V112.42H404.61v-6.73Z"/><path class="02f004b3-9510-4ce7-bb90-54c3d84653cf" d="M458.71,105.69v48.6h-8.2v-48.6Z"/><path class="02f004b3-9510-4ce7-bb90-54c3d84653cf" d="M471.79,119.47a22.41,22.41,0,0,1,4.61-8,20,20,0,0,1,7.15-5,25.48,25.48,0,0,1,18.51,0,19.87,19.87,0,0,1,7.18,5,22.57,22.57,0,0,1,4.62,8,34.73,34.73,0,0,1,0,21,22.57,22.57,0,0,1-4.62,7.95,19.75,19.75,0,0,1-7.18,5,25.48,25.48,0,0,1-18.51,0,19.9,19.9,0,0,1-7.15-5,22.41,22.41,0,0,1-4.61-7.95,34.53,34.53,0,0,1,0-21Zm7.7,17.87a17.27,17.27,0,0,0,2.64,5.87,12.49,12.49,0,0,0,4.44,3.86,14.84,14.84,0,0,0,12.5,0,12.49,12.49,0,0,0,4.44-3.86,17.08,17.08,0,0,0,2.64-5.87,31.52,31.52,0,0,0,0-14.71,17.08,17.08,0,0,0-2.64-5.87,12.46,12.46,0,0,0-4.44-3.85,14.75,14.75,0,0,0-12.5,0,12.46,12.46,0,0,0-4.44,3.85,17.27,17.27,0,0,0-2.64,5.87,31.52,31.52,0,0,0,0,14.71Z"/><path class="02f004b3-9510-4ce7-bb90-54c3d84653cf" d="M535.57,105.69q5,7.91,9.44,14.85c1.25,2,2.52,4,3.82,6s2.53,4,3.71,5.87,2.26,3.6,3.23,5.17,1.79,2.85,2.43,3.82h.21V105.69h7.71v48.6h-8.61l-9.3-14.65c-1.25-1.95-2.53-3.95-3.82-6l-3.72-5.9c-1.18-1.88-2.27-3.61-3.26-5.21s-1.84-2.93-2.53-4h-.21v35.76H527v-48.6Z"/></svg>
